<?xml version="1.0" encoding="utf-8" standalone="no"?>
<!DOCTYPE svg PUBLIC "-//W3C//DTD SVG 1.1//EN"
  "http://www.w3.org/Graphics/SVG/1.1/DTD/svg11.dtd">
<svg xmlns:xlink="http://www.w3.org/1999/xlink" width="165.249045pt" height="12.840854pt" viewBox="0 0 165.249045 12.840854" xmlns="http://www.w3.org/2000/svg" version="1.1">
 <metadata>
  <rdf:RDF xmlns:dc="http://purl.org/dc/elements/1.1/" xmlns:cc="http://creativecommons.org/ns#" xmlns:rdf="http://www.w3.org/1999/02/22-rdf-syntax-ns#">
   <cc:Work>
    <dc:type rdf:resource="http://purl.org/dc/dcmitype/StillImage"/>
    <dc:date>2023-06-04T16:54:10.309299</dc:date>
    <dc:format>image/svg+xml</dc:format>
    <dc:creator>
     <cc:Agent>
      <dc:title>Matplotlib v3.7.1, https://matplotlib.org/</dc:title>
     </cc:Agent>
    </dc:creator>
   </cc:Work>
  </rdf:RDF>
 </metadata>
 <defs>
  <style type="text/css">*{stroke-linejoin: round; stroke-linecap: butt}</style>
 </defs>
 <g id="figure_1">
  <g id="patch_1">
   <path d="M 0 12.840854 
L 165.249045 12.840854 
L 165.249045 0 
L 0 0 
L 0 12.840854 
z
" style="fill: none"/>
  </g>
  <g id="text_1">
   <!-- $DCG@k(V) = \sum_{i=1}^{k} G(rel(v_i))*D(i)$ -->
   <g transform="translate(0 9.852017) scale(0.1 -0.1)">
    <defs>
     <path id="CMMI12-44" d="M 1005 472 
C 947 249 934 185 486 185 
C 365 185 301 185 301 70 
C 301 0 339 0 467 0 
L 2496 0 
C 3789 0 5050 1332 5050 2753 
C 5050 3671 4499 4352 3584 4352 
L 1530 4352 
C 1408 4352 1350 4352 1350 4231 
C 1350 4167 1408 4167 1504 4167 
C 1894 4167 1894 4116 1894 4046 
C 1894 4034 1894 3995 1869 3899 
L 1005 472 
z
M 2355 3931 
C 2413 4167 2438 4167 2688 4167 
L 3392 4167 
C 3994 4167 4544 3842 4544 2963 
C 4544 2644 4416 1536 3795 835 
C 3616 625 3130 185 2394 185 
L 1664 185 
C 1574 185 1562 185 1523 192 
C 1453 198 1446 211 1446 262 
C 1446 307 1459 345 1472 402 
L 2355 3931 
z
" transform="scale(0.015625)"/>
     <path id="CMMI12-43" d="M 4781 4423 
C 4781 4480 4736 4480 4723 4480 
C 4710 4480 4685 4480 4634 4416 
L 4192 3882 
C 3968 4264 3616 4480 3136 4480 
C 1754 4480 320 3088 320 1595 
C 320 533 1069 -128 2003 -128 
C 2515 -128 2963 88 3334 400 
C 3891 863 4058 1481 4058 1531 
C 4058 1588 4006 1588 3987 1588 
C 3930 1588 3923 1550 3910 1524 
C 3616 534 2752 57 2112 57 
C 1434 57 845 489 845 1391 
C 845 1595 909 2700 1632 3532 
C 1984 3939 2586 4295 3194 4295 
C 3898 4295 4211 3717 4211 3068 
C 4211 2903 4192 2764 4192 2738 
C 4192 2681 4256 2681 4275 2681 
C 4346 2681 4352 2687 4378 2801 
L 4781 4423 
z
" transform="scale(0.015625)"/>
     <path id="CMMI12-47" d="M 4774 4423 
C 4774 4480 4730 4480 4717 4480 
C 4704 4480 4678 4480 4627 4416 
L 4186 3889 
C 4154 3940 4026 4163 3776 4309 
C 3501 4480 3226 4480 3130 4480 
C 1760 4480 320 3095 320 1595 
C 320 546 1050 -128 2010 -128 
C 2470 -128 3053 25 3373 427 
C 3443 185 3584 12 3629 12 
C 3661 12 3667 32 3674 32 
C 3680 44 3731 270 3763 385 
L 3866 797 
C 3917 1009 3942 1099 3987 1291 
C 4051 1536 4064 1536 4416 1536 
C 4442 1536 4518 1536 4518 1666 
C 4518 1734 4454 1734 4435 1734 
C 4326 1734 4205 1734 4090 1734 
L 3744 1734 
C 3475 1734 3194 1734 2931 1734 
C 2874 1734 2797 1734 2797 1611 
C 2797 1542 2848 1542 2848 1536 
L 3008 1536 
C 3514 1536 3514 1489 3514 1402 
C 3514 1395 3392 751 3270 561 
C 3027 204 2522 57 2144 57 
C 1651 57 851 312 851 1410 
C 851 1836 1005 2808 1626 3526 
C 2029 3984 2624 4295 3187 4295 
C 3942 4295 4211 3655 4211 3071 
C 4211 2970 4186 2831 4186 2742 
C 4186 2685 4250 2685 4269 2685 
C 4339 2685 4346 2691 4371 2805 
L 4774 4423 
z
" transform="scale(0.015625)"/>
     <path id="CMR17-40" d="M 3501 2908 
C 3501 3029 3494 3029 3366 3029 
L 3187 3029 
C 3181 3029 3174 3035 3142 3081 
C 2874 3481 2541 3584 2298 3584 
C 1683 3584 1101 3023 1101 2208 
C 1101 1392 1690 832 2298 832 
C 2739 832 3040 1155 3155 1353 
C 3162 997 3456 832 3706 832 
C 4237 832 4307 1440 4307 2120 
C 4307 3712 3194 4454 2304 4454 
C 1229 4454 294 3493 294 2196 
C 294 980 1146 -64 2336 -64 
C 3379 -64 4301 373 4301 425 
C 4301 457 4294 457 4166 457 
C 4058 457 4045 457 4013 438 
C 3782 330 3162 38 2330 38 
C 1197 38 410 1063 410 2195 
C 410 3404 1280 4352 2298 4352 
C 2758 4352 3213 4168 3622 3744 
C 4032 3300 4192 2697 4192 2094 
C 4192 1619 4179 933 3731 933 
C 3526 933 3501 1195 3501 1367 
L 3501 2908 
z
M 3162 1723 
C 3162 1602 3162 1596 3085 1462 
C 2886 1099 2579 933 2304 933 
C 1830 933 1440 1500 1440 2208 
C 1440 2915 1830 3482 2304 3482 
C 2573 3482 2778 3329 2880 3233 
C 3034 3087 3162 2902 3162 2692 
L 3162 1723 
z
" transform="scale(0.015625)"/>
     <path id="CMMI12-6b" d="M 1798 4257 
C 1805 4283 1818 4321 1818 4352 
C 1818 4416 1754 4416 1741 4416 
C 1734 4416 1504 4393 1389 4377 
C 1280 4377 1184 4358 1069 4358 
C 915 4345 870 4339 870 4224 
C 870 4160 934 4160 998 4160 
C 1325 4160 1325 4103 1325 4040 
C 1325 4015 1325 4002 1293 3888 
L 378 248 
C 352 152 352 140 352 101 
C 352 -38 461 -64 525 -64 
C 704 -64 742 77 794 275 
L 1094 1469 
C 1555 1418 1830 1226 1830 920 
C 1830 881 1830 856 1811 760 
C 1786 664 1786 588 1786 556 
C 1786 185 2029 -64 2355 -64 
C 2650 -64 2803 204 2854 294 
C 2989 530 3072 888 3072 913 
C 3072 945 3046 971 3008 971 
C 2950 971 2944 945 2918 843 
C 2829 511 2694 64 2368 64 
C 2240 64 2157 128 2157 370 
C 2157 492 2182 632 2208 728 
C 2234 843 2234 849 2234 926 
C 2234 1303 1894 1514 1306 1590 
C 1536 1731 1766 1980 1856 2076 
C 2221 2484 2470 2689 2765 2689 
C 2912 2689 2950 2650 2995 2612 
C 2758 2586 2669 2420 2669 2293 
C 2669 2139 2790 2088 2880 2088 
C 3053 2088 3206 2235 3206 2440 
C 3206 2625 3059 2816 2771 2816 
C 2419 2816 2131 2567 1677 2056 
C 1613 1980 1376 1737 1139 1648 
L 1798 4257 
z
" transform="scale(0.015625)"/>
     <path id="CMR17-28" d="M 1958 -1561 
C 1958 -1555 1958 -1542 1939 -1523 
C 1645 -1224 858 -407 858 1581 
C 858 3569 1632 4379 1946 4697 
C 1946 4704 1958 4717 1958 4736 
C 1958 4755 1939 4768 1914 4768 
C 1843 4768 1299 4296 986 3594 
C 666 2887 576 2199 576 1588 
C 576 1128 621 351 1005 -471 
C 1312 -1135 1837 -1600 1914 -1600 
C 1946 -1600 1958 -1587 1958 -1561 
z
" transform="scale(0.015625)"/>
     <path id="CMMI12-56" d="M 3962 3640 
C 4179 3984 4378 4136 4704 4162 
C 4768 4168 4819 4168 4819 4282 
C 4819 4308 4806 4346 4749 4346 
C 4634 4346 4358 4346 4243 4346 
C 4058 4346 3866 4346 3686 4346 
C 3635 4346 3571 4346 3571 4226 
C 3571 4168 3629 4162 3654 4162 
C 3891 4143 3917 4029 3917 3952 
C 3917 3857 3827 3710 3821 3704 
L 1811 540 
L 1363 3969 
C 1363 4160 1696 4160 1766 4160 
C 1862 4160 1920 4160 1920 4282 
C 1920 4346 1850 4346 1830 4346 
C 1722 4346 1594 4346 1485 4346 
L 1126 4346 
C 659 4346 467 4346 461 4346 
C 422 4346 346 4346 346 4230 
C 346 4160 390 4160 493 4160 
C 819 4160 838 4102 858 3944 
L 1370 24 
C 1389 -109 1389 -128 1478 -128 
C 1555 -128 1587 -109 1651 -8 
L 3962 3640 
z
" transform="scale(0.015625)"/>
     <path id="CMR17-29" d="M 1683 1581 
C 1683 2040 1638 2817 1254 3639 
C 947 4303 422 4768 346 4768 
C 326 4768 301 4761 301 4729 
C 301 4717 307 4710 314 4697 
C 621 4378 1402 3568 1402 1584 
C 1402 -407 627 -1217 314 -1537 
C 307 -1549 301 -1556 301 -1568 
C 301 -1600 326 -1600 346 -1600 
C 416 -1600 960 -1128 1274 -426 
C 1594 281 1683 969 1683 1581 
z
" transform="scale(0.015625)"/>
     <path id="CMR17-3d" d="M 4115 2017 
C 4211 2017 4307 2017 4307 2125 
C 4307 2240 4198 2240 4090 2240 
L 512 2240 
C 403 2240 294 2240 294 2125 
C 294 2017 390 2017 486 2017 
L 4115 2017 
z
M 4090 896 
C 4198 896 4307 896 4307 1011 
C 4307 1119 4211 1119 4115 1119 
L 486 1119 
C 390 1119 294 1119 294 1011 
C 294 896 403 896 512 896 
L 4090 896 
z
" transform="scale(0.015625)"/>
     <path id="CMEX10-50" d="M 2694 -3418 
L 422 -6227 
C 371 -6291 365 -6304 365 -6330 
C 365 -6400 422 -6400 538 -6400 
L 5843 -6400 
L 6394 -4806 
L 6234 -4806 
C 6074 -5286 5645 -5677 5101 -5862 
C 4998 -5894 4557 -6048 3616 -6048 
L 896 -6048 
L 3117 -3302 
C 3162 -3245 3174 -3226 3174 -3200 
C 3174 -3174 3168 -3168 3130 -3110 
L 1050 -256 
L 3584 -256 
C 4314 -256 5786 -301 6234 -1498 
L 6394 -1498 
L 5843 0 
L 538 0 
C 365 0 358 -6 358 -205 
L 2694 -3418 
z
" transform="scale(0.015625)"/>
     <path id="CMMI12-69" d="M 1811 913 
C 1811 945 1786 971 1747 971 
C 1690 971 1683 952 1651 843 
C 1485 262 1222 64 1011 64 
C 934 64 845 83 845 275 
C 845 447 922 639 992 830 
L 1440 2018 
C 1459 2069 1504 2184 1504 2305 
C 1504 2574 1312 2816 998 2816 
C 410 2816 173 1890 173 1839 
C 173 1814 198 1782 243 1782 
C 301 1782 307 1807 333 1896 
C 486 2428 730 2682 979 2682 
C 1037 2682 1146 2682 1146 2478 
C 1146 2312 1062 2101 1011 1961 
L 563 773 
C 525 671 486 568 486 453 
C 486 166 685 -64 992 -64 
C 1581 -64 1811 869 1811 913 
z
M 1760 4013 
C 1760 4109 1683 4224 1542 4224 
C 1395 4224 1229 4083 1229 3917 
C 1229 3758 1363 3707 1440 3707 
C 1613 3707 1760 3873 1760 4013 
z
" transform="scale(0.015625)"/>
     <path id="CMR17-31" d="M 1702 4058 
C 1702 4192 1696 4192 1606 4192 
C 1357 3916 979 3827 621 3827 
C 602 3827 570 3827 563 3808 
C 557 3795 557 3782 557 3648 
C 755 3648 1088 3686 1344 3839 
L 1344 461 
C 1344 236 1331 160 781 160 
L 589 160 
L 589 0 
C 896 0 1216 0 1523 0 
C 1830 0 2150 0 2458 0 
L 2458 160 
L 2266 160 
C 1715 160 1702 230 1702 458 
L 1702 4058 
z
" transform="scale(0.015625)"/>
     <path id="CMMI12-72" d="M 2490 2612 
C 2291 2574 2189 2433 2189 2293 
C 2189 2139 2310 2088 2400 2088 
C 2579 2088 2726 2242 2726 2433 
C 2726 2638 2528 2816 2208 2816 
C 1952 2816 1658 2701 1389 2312 
C 1344 2650 1088 2816 832 2816 
C 582 2816 454 2625 378 2484 
C 269 2254 173 1871 173 1839 
C 173 1814 198 1782 243 1782 
C 294 1782 301 1788 339 1935 
C 435 2318 557 2689 813 2689 
C 966 2689 1011 2580 1011 2395 
C 1011 2254 947 2005 902 1807 
L 723 1118 
C 698 996 627 709 595 594 
C 550 428 480 128 480 96 
C 480 6 550 -64 646 -64 
C 717 -64 838 -19 877 109 
C 896 160 1133 1124 1171 1271 
C 1203 1411 1242 1546 1274 1686 
C 1299 1775 1325 1878 1344 1961 
C 1363 2018 1536 2331 1696 2472 
C 1773 2542 1939 2689 2202 2689 
C 2304 2689 2406 2670 2490 2612 
z
" transform="scale(0.015625)"/>
     <path id="CMMI12-65" d="M 1146 1479 
C 1318 1479 1754 1479 2061 1595 
C 2547 1783 2592 2158 2592 2274 
C 2592 2558 2349 2816 1926 2816 
C 1254 2816 288 2210 288 1073 
C 288 402 672 -64 1254 -64 
C 2125 -64 2675 609 2675 692 
C 2675 730 2637 762 2611 762 
C 2592 762 2586 756 2528 699 
C 2118 159 1510 64 1267 64 
C 902 64 710 350 710 822 
C 710 911 710 1071 806 1479 
L 1146 1479 
z
M 838 1600 
C 1114 2592 1722 2689 1926 2689 
C 2208 2689 2400 2522 2400 2277 
C 2400 1600 1376 1600 1107 1600 
L 838 1600 
z
" transform="scale(0.015625)"/>
     <path id="CMMI12-6c" d="M 1626 4257 
C 1632 4282 1645 4320 1645 4352 
C 1645 4416 1581 4416 1568 4416 
C 1562 4416 1331 4393 1216 4377 
C 1107 4377 1011 4358 896 4358 
C 742 4345 698 4339 698 4224 
C 698 4160 762 4160 826 4160 
C 1152 4160 1152 4102 1152 4039 
C 1152 4014 1152 4001 1120 3887 
L 326 731 
C 307 661 294 610 294 509 
C 294 191 531 -64 858 -64 
C 1069 -64 1210 76 1312 274 
C 1421 483 1510 884 1510 909 
C 1510 941 1485 967 1446 967 
C 1389 967 1382 935 1357 840 
C 1242 401 1126 64 870 64 
C 678 64 678 267 678 357 
C 678 382 678 515 723 694 
L 1626 4257 
z
" transform="scale(0.015625)"/>
     <path id="CMMI12-76" d="M 2925 2389 
C 2925 2791 2720 2816 2669 2816 
C 2515 2816 2374 2663 2374 2535 
C 2374 2459 2419 2414 2445 2389 
C 2509 2331 2675 2159 2675 1827 
C 2675 1558 2291 64 1523 64 
C 1133 64 1056 390 1056 626 
C 1056 945 1203 1392 1376 1852 
C 1478 2114 1504 2178 1504 2305 
C 1504 2574 1312 2816 998 2816 
C 410 2816 173 1890 173 1839 
C 173 1814 198 1782 243 1782 
C 301 1782 307 1807 333 1897 
C 486 2446 736 2689 979 2689 
C 1037 2689 1146 2689 1146 2478 
C 1146 2312 1075 2127 979 1884 
C 672 1067 672 869 672 715 
C 672 575 691 313 890 134 
C 1120 -64 1440 -64 1498 -64 
C 2560 -64 2925 2024 2925 2389 
z
" transform="scale(0.015625)"/>
     <path id="CMSY10-3" d="M 1760 2719 
C 1766 2808 1766 2962 1600 2962 
C 1498 2962 1414 2879 1434 2795 
L 1434 2712 
L 1523 1720 
L 704 2316 
C 646 2348 634 2360 589 2360 
C 499 2360 416 2271 416 2181 
C 416 2079 480 2053 544 2021 
L 1453 1586 
L 570 1158 
C 467 1107 416 1081 416 985 
C 416 889 499 806 589 806 
C 634 806 646 806 806 928 
L 1523 1446 
L 1427 371 
C 1427 236 1542 204 1594 204 
C 1670 204 1766 248 1766 371 
L 1670 1446 
L 2490 851 
C 2547 819 2560 806 2605 806 
C 2694 806 2778 896 2778 985 
C 2778 1081 2720 1113 2643 1152 
C 2259 1343 2246 1343 1741 1580 
L 2624 2008 
C 2726 2060 2778 2085 2778 2181 
C 2778 2277 2694 2360 2605 2360 
C 2560 2360 2547 2360 2387 2239 
L 1670 1720 
L 1760 2719 
z
" transform="scale(0.015625)"/>
    </defs>
    <use xlink:href="#CMMI12-44" transform="scale(0.996264)"/>
    <use xlink:href="#CMMI12-43" transform="translate(83.703948 0) scale(0.996264)"/>
    <use xlink:href="#CMMI12-47" transform="translate(160.650794 0) scale(0.996264)"/>
    <use xlink:href="#CMR17-40" transform="translate(237.597656 0) scale(0.996264)"/>
    <use xlink:href="#CMMI12-6b" transform="translate(309.312445 0) scale(0.996264)"/>
    <use xlink:href="#CMR17-28" transform="translate(363.391645 0) scale(0.996264)"/>
    <use xlink:href="#CMMI12-56" transform="translate(398.672413 0) scale(0.996264)"/>
    <use xlink:href="#CMR17-29" transform="translate(477.219734 0) scale(0.996264)"/>
    <use xlink:href="#CMR17-3d" transform="translate(540.17451 0) scale(0.996264)"/>
    <use xlink:href="#CMEX10-50" transform="translate(639.563308 74.720454) scale(0.996264)"/>
    <use xlink:href="#CMMI12-6b" transform="translate(744.72486 47.793963) scale(0.697382)"/>
    <use xlink:href="#CMMI12-69" transform="translate(744.72486 -28.394178) scale(0.697382)"/>
    <use xlink:href="#CMR17-3d" transform="translate(768.019767 -28.394178) scale(0.697382)"/>
    <use xlink:href="#CMR17-31" transform="translate(818.219899 -28.394178) scale(0.697382)"/>
    <use xlink:href="#CMMI12-47" transform="translate(867.305618 0) scale(0.996264)"/>
    <use xlink:href="#CMR17-28" transform="translate(944.25248 0) scale(0.996264)"/>
    <use xlink:href="#CMMI12-72" transform="translate(979.533248 0) scale(0.996264)"/>
    <use xlink:href="#CMMI12-65" transform="translate(1026.20386 0) scale(0.996264)"/>
    <use xlink:href="#CMMI12-6c" transform="translate(1071.415861 0) scale(0.996264)"/>
    <use xlink:href="#CMR17-28" transform="translate(1102.664264 0) scale(0.996264)"/>
    <use xlink:href="#CMMI12-76" transform="translate(1137.945032 0) scale(0.996264)"/>
    <use xlink:href="#CMMI12-69" transform="translate(1185.105613 -14.943915) scale(0.697382)"/>
    <use xlink:href="#CMR17-29" transform="translate(1208.898652 0) scale(0.996264)"/>
    <use xlink:href="#CMR17-29" transform="translate(1244.17942 0) scale(0.996264)"/>
    <use xlink:href="#CMSY10-3" transform="translate(1301.599395 0) scale(0.996264)"/>
    <use xlink:href="#CMMI12-44" transform="translate(1373.551985 0) scale(0.996264)"/>
    <use xlink:href="#CMR17-28" transform="translate(1457.255932 0) scale(0.996264)"/>
    <use xlink:href="#CMMI12-69" transform="translate(1492.5367 0) scale(0.996264)"/>
    <use xlink:href="#CMR17-29" transform="translate(1525.815302 0) scale(0.996264)"/>
   </g>
  </g>
 </g>
</svg>
