<?xml version="1.0" encoding="utf-8" standalone="no"?>
<!DOCTYPE svg PUBLIC "-//W3C//DTD SVG 1.1//EN"
  "http://www.w3.org/Graphics/SVG/1.1/DTD/svg11.dtd">
<svg xmlns:xlink="http://www.w3.org/1999/xlink" width="51.193021pt" height="9.96264pt" viewBox="0 0 51.193021 9.96264" xmlns="http://www.w3.org/2000/svg" version="1.1">
 <metadata>
  <rdf:RDF xmlns:dc="http://purl.org/dc/elements/1.1/" xmlns:cc="http://creativecommons.org/ns#" xmlns:rdf="http://www.w3.org/1999/02/22-rdf-syntax-ns#">
   <cc:Work>
    <dc:type rdf:resource="http://purl.org/dc/dcmitype/StillImage"/>
    <dc:date>2023-06-04T16:54:10.325203</dc:date>
    <dc:format>image/svg+xml</dc:format>
    <dc:creator>
     <cc:Agent>
      <dc:title>Matplotlib v3.7.1, https://matplotlib.org/</dc:title>
     </cc:Agent>
    </dc:creator>
   </cc:Work>
  </rdf:RDF>
 </metadata>
 <defs>
  <style type="text/css">*{stroke-linejoin: round; stroke-linecap: butt}</style>
 </defs>
 <g id="figure_1">
  <g id="patch_1">
   <path d="M 0 9.96264 
L 51.193021 9.96264 
L 51.193021 -0 
L 0 -0 
L 0 9.96264 
z
" style="fill: none"/>
  </g>
  <g id="text_1">
   <!-- $R_i := \mathcal{R}(g_i)$ -->
   <g transform="translate(0 7.47198) scale(0.1 -0.1)">
    <defs>
     <path id="CMMI12-52" d="M 2355 3924 
C 2413 4160 2438 4160 2688 4160 
L 3149 4160 
C 3699 4160 4109 3995 4109 3499 
C 4109 3175 3942 2240 2656 2240 
L 1933 2240 
L 2355 3924 
z
M 3245 2169 
C 4038 2341 4659 2851 4659 3398 
C 4659 3894 4154 4352 3264 4352 
L 1530 4352 
C 1402 4352 1344 4352 1344 4226 
C 1344 4160 1389 4160 1510 4160 
C 1894 4160 1894 4112 1894 4045 
C 1894 4033 1894 3994 1869 3899 
L 1005 479 
C 947 256 934 192 493 192 
C 346 192 301 192 301 71 
C 301 7 371 7 390 7 
C 506 7 640 7 762 7 
L 1517 7 
C 1632 7 1766 7 1882 7 
C 1933 7 2003 7 2003 128 
C 2003 192 1946 192 1850 192 
C 1459 192 1459 243 1459 306 
C 1459 313 1459 357 1472 407 
L 1901 2112 
L 2669 2112 
C 3277 2112 3392 1731 3392 1522 
C 3392 1427 3328 1179 3283 1014 
C 3213 723 3194 652 3194 532 
C 3194 82 3565 -128 3994 -128 
C 4512 -128 4736 501 4736 591 
C 4736 635 4704 654 4666 654 
C 4614 654 4602 616 4589 565 
C 4435 114 4173 0 4013 0 
C 3853 0 3750 70 3750 356 
C 3750 509 3827 1088 3834 1120 
C 3866 1355 3866 1380 3866 1432 
C 3866 1896 3488 2093 3245 2169 
z
" transform="scale(0.015625)"/>
     <path id="CMMI12-69" d="M 1811 913 
C 1811 945 1786 971 1747 971 
C 1690 971 1683 952 1651 843 
C 1485 262 1222 64 1011 64 
C 934 64 845 83 845 275 
C 845 447 922 639 992 830 
L 1440 2018 
C 1459 2069 1504 2184 1504 2305 
C 1504 2574 1312 2816 998 2816 
C 410 2816 173 1890 173 1839 
C 173 1814 198 1782 243 1782 
C 301 1782 307 1807 333 1896 
C 486 2428 730 2682 979 2682 
C 1037 2682 1146 2682 1146 2478 
C 1146 2312 1062 2101 1011 1961 
L 563 773 
C 525 671 486 568 486 453 
C 486 166 685 -64 992 -64 
C 1581 -64 1811 869 1811 913 
z
M 1760 4013 
C 1760 4109 1683 4224 1542 4224 
C 1395 4224 1229 4083 1229 3917 
C 1229 3758 1363 3707 1440 3707 
C 1613 3707 1760 3873 1760 4013 
z
" transform="scale(0.015625)"/>
     <path id="CMR17-3a" d="M 1062 2491 
C 1062 2650 934 2752 800 2752 
C 672 2752 538 2650 538 2491 
C 538 2332 666 2230 800 2230 
C 928 2230 1062 2332 1062 2491 
z
M 1062 261 
C 1062 420 934 522 800 522 
C 672 522 538 420 538 261 
C 538 102 666 0 800 0 
C 928 0 1062 102 1062 261 
z
" transform="scale(0.015625)"/>
     <path id="CMR17-3d" d="M 4115 2017 
C 4211 2017 4307 2017 4307 2125 
C 4307 2240 4198 2240 4090 2240 
L 512 2240 
C 403 2240 294 2240 294 2125 
C 294 2017 390 2017 486 2017 
L 4115 2017 
z
M 4090 896 
C 4198 896 4307 896 4307 1011 
C 4307 1119 4211 1119 4115 1119 
L 486 1119 
C 390 1119 294 1119 294 1011 
C 294 896 403 896 512 896 
L 4090 896 
z
" transform="scale(0.015625)"/>
     <path id="CMSY10-52" d="M 2592 4032 
C 3821 4032 4141 3727 4141 3299 
C 4141 2904 3834 2125 2778 2125 
C 2464 2125 2246 1881 2246 1805 
C 2246 1767 2272 1767 2278 1767 
C 2547 1722 2675 1594 3008 839 
C 3302 167 3469 -128 3846 -128 
C 4621 -128 5357 659 5357 800 
C 5357 845 5306 845 5286 845 
C 5210 845 4960 755 4826 570 
C 4723 423 4582 224 4269 224 
C 3942 224 3744 679 3526 1178 
C 3392 1498 3277 1735 3130 1907 
C 4058 2247 4685 2919 4685 3584 
C 4685 4384 3610 4384 2643 4384 
C 2003 4384 1645 4384 1107 4154 
C 250 3776 134 3245 134 3194 
C 134 3155 160 3143 198 3143 
C 301 3143 448 3234 499 3267 
C 634 3359 653 3398 691 3522 
C 781 3784 960 4013 1766 4013 
C 1734 3625 1677 3033 1459 2102 
C 1286 1388 1050 687 768 6 
C 736 -64 736 -77 736 -83 
C 736 -128 787 -128 800 -128 
C 928 -128 1197 26 1267 147 
C 1280 179 2093 1984 2291 4032 
L 2592 4032 
z
" transform="scale(0.015625)"/>
     <path id="CMR17-28" d="M 1958 -1561 
C 1958 -1555 1958 -1542 1939 -1523 
C 1645 -1224 858 -407 858 1581 
C 858 3569 1632 4379 1946 4697 
C 1946 4704 1958 4717 1958 4736 
C 1958 4755 1939 4768 1914 4768 
C 1843 4768 1299 4296 986 3594 
C 666 2887 576 2199 576 1588 
C 576 1128 621 351 1005 -471 
C 1312 -1135 1837 -1600 1914 -1600 
C 1946 -1600 1958 -1587 1958 -1561 
z
" transform="scale(0.015625)"/>
     <path id="CMMI12-67" d="M 2163 811 
C 2138 709 2125 683 2042 588 
C 1779 249 1510 128 1312 128 
C 1101 128 902 294 902 734 
C 902 1073 1094 1788 1235 2076 
C 1421 2433 1709 2689 1978 2689 
C 2400 2689 2483 2165 2483 2127 
L 2464 2037 
L 2163 811 
z
M 2560 2395 
C 2477 2580 2298 2816 1978 2816 
C 1280 2816 486 1941 486 990 
C 486 326 890 0 1299 0 
C 1638 0 1939 268 2054 396 
L 1914 -171 
C 1824 -516 1786 -674 1555 -894 
C 1293 -1152 1050 -1152 909 -1152 
C 717 -1152 557 -1139 397 -1089 
C 602 -1033 653 -858 653 -789 
C 653 -689 576 -588 435 -588 
C 282 -588 115 -714 115 -922 
C 115 -1180 378 -1280 922 -1280 
C 1747 -1280 2176 -753 2259 -410 
L 2970 2435 
C 2989 2511 2989 2524 2989 2536 
C 2989 2625 2918 2695 2822 2695 
C 2669 2695 2579 2567 2560 2395 
z
" transform="scale(0.015625)"/>
     <path id="CMR17-29" d="M 1683 1581 
C 1683 2040 1638 2817 1254 3639 
C 947 4303 422 4768 346 4768 
C 326 4768 301 4761 301 4729 
C 301 4717 307 4710 314 4697 
C 621 4378 1402 3568 1402 1584 
C 1402 -407 627 -1217 314 -1537 
C 307 -1549 301 -1556 301 -1568 
C 301 -1600 326 -1600 346 -1600 
C 416 -1600 960 -1128 1274 -426 
C 1594 281 1683 969 1683 1581 
z
" transform="scale(0.015625)"/>
    </defs>
    <use xlink:href="#CMMI12-52" transform="scale(0.996264)"/>
    <use xlink:href="#CMMI12-69" transform="translate(74.250826 -14.943915) scale(0.697382)"/>
    <use xlink:href="#CMR17-3a" transform="translate(125.717874 0) scale(0.996264)"/>
    <use xlink:href="#CMR17-3d" transform="translate(150.588932 0) scale(0.996264)"/>
    <use xlink:href="#CMSY10-52" transform="translate(249.977729 0) scale(0.996264)"/>
    <use xlink:href="#CMR17-28" transform="translate(334.411469 0) scale(0.996264)"/>
    <use xlink:href="#CMMI12-67" transform="translate(369.692237 0) scale(0.996264)"/>
    <use xlink:href="#CMMI12-69" transform="translate(416.403134 -14.943915) scale(0.697382)"/>
    <use xlink:href="#CMR17-29" transform="translate(440.196173 0) scale(0.996264)"/>
   </g>
  </g>
 </g>
</svg>
