<?xml version="1.0" encoding="utf-8" standalone="no"?>
<!DOCTYPE svg PUBLIC "-//W3C//DTD SVG 1.1//EN"
  "http://www.w3.org/Graphics/SVG/1.1/DTD/svg11.dtd">
<svg xmlns:xlink="http://www.w3.org/1999/xlink" width="150.635374pt" height="12.492171pt" viewBox="0 0 150.635374 12.492171" xmlns="http://www.w3.org/2000/svg" version="1.1">
 <metadata>
  <rdf:RDF xmlns:dc="http://purl.org/dc/elements/1.1/" xmlns:cc="http://creativecommons.org/ns#" xmlns:rdf="http://www.w3.org/1999/02/22-rdf-syntax-ns#">
   <cc:Work>
    <dc:type rdf:resource="http://purl.org/dc/dcmitype/StillImage"/>
    <dc:date>2023-06-04T16:54:10.354477</dc:date>
    <dc:format>image/svg+xml</dc:format>
    <dc:creator>
     <cc:Agent>
      <dc:title>Matplotlib v3.7.1, https://matplotlib.org/</dc:title>
     </cc:Agent>
    </dc:creator>
   </cc:Work>
  </rdf:RDF>
 </metadata>
 <defs>
  <style type="text/css">*{stroke-linejoin: round; stroke-linecap: butt}</style>
 </defs>
 <g id="figure_1">
  <g id="patch_1">
   <path d="M 0 12.492171 
L 150.635374 12.492171 
L 150.635374 0 
L 0 0 
L 0 12.492171 
z
" style="fill: none"/>
  </g>
  <g id="text_1">
   <!-- $ERR = \sum_{r=1}^{n} 1/r \prod_{i=1}^{r-1} (1-R_i)R_r$ -->
   <g transform="translate(0 9.503333) scale(0.1 -0.1)">
    <defs>
     <path id="CMMI12-45" d="M 4448 1489 
C 4454 1508 4474 1554 4474 1579 
C 4474 1611 4448 1643 4410 1643 
C 4384 1643 4371 1637 4352 1617 
C 4339 1611 4339 1598 4282 1469 
C 3904 570 3629 185 2605 185 
L 1670 185 
C 1581 185 1568 185 1530 192 
C 1459 198 1453 211 1453 262 
C 1453 307 1466 345 1478 403 
L 1920 2176 
L 2554 2176 
C 3053 2176 3091 2066 3091 1874 
C 3091 1810 3091 1752 3046 1560 
C 3034 1534 3027 1508 3027 1489 
C 3027 1444 3059 1425 3098 1425 
C 3155 1425 3162 1469 3187 1559 
L 3552 3042 
C 3552 3073 3526 3105 3488 3105 
C 3430 3105 3424 3080 3398 2990 
C 3270 2501 3142 2361 2573 2361 
L 1965 2361 
L 2362 3930 
C 2419 4154 2432 4154 2694 4154 
L 3610 4154 
C 4397 4154 4557 3943 4557 3458 
C 4557 3451 4557 3273 4531 3062 
C 4525 3036 4518 2998 4518 2985 
C 4518 2934 4550 2915 4589 2915 
C 4634 2915 4659 2941 4672 3055 
L 4806 4174 
C 4806 4195 4819 4263 4819 4277 
C 4819 4352 4762 4352 4646 4352 
L 1523 4352 
C 1402 4352 1338 4352 1338 4229 
C 1338 4154 1382 4154 1491 4154 
C 1888 4154 1888 4114 1888 4052 
C 1888 4020 1882 3994 1862 3924 
L 998 473 
C 941 249 928 185 480 185 
C 358 185 294 185 294 70 
C 294 0 333 0 461 0 
L 3674 0 
C 3814 0 3821 6 3866 110 
L 4448 1489 
z
" transform="scale(0.015625)"/>
     <path id="CMMI12-52" d="M 2355 3924 
C 2413 4160 2438 4160 2688 4160 
L 3149 4160 
C 3699 4160 4109 3995 4109 3499 
C 4109 3175 3942 2240 2656 2240 
L 1933 2240 
L 2355 3924 
z
M 3245 2169 
C 4038 2341 4659 2851 4659 3398 
C 4659 3894 4154 4352 3264 4352 
L 1530 4352 
C 1402 4352 1344 4352 1344 4226 
C 1344 4160 1389 4160 1510 4160 
C 1894 4160 1894 4112 1894 4045 
C 1894 4033 1894 3994 1869 3899 
L 1005 479 
C 947 256 934 192 493 192 
C 346 192 301 192 301 71 
C 301 7 371 7 390 7 
C 506 7 640 7 762 7 
L 1517 7 
C 1632 7 1766 7 1882 7 
C 1933 7 2003 7 2003 128 
C 2003 192 1946 192 1850 192 
C 1459 192 1459 243 1459 306 
C 1459 313 1459 357 1472 407 
L 1901 2112 
L 2669 2112 
C 3277 2112 3392 1731 3392 1522 
C 3392 1427 3328 1179 3283 1014 
C 3213 723 3194 652 3194 532 
C 3194 82 3565 -128 3994 -128 
C 4512 -128 4736 501 4736 591 
C 4736 635 4704 654 4666 654 
C 4614 654 4602 616 4589 565 
C 4435 114 4173 0 4013 0 
C 3853 0 3750 70 3750 356 
C 3750 509 3827 1088 3834 1120 
C 3866 1355 3866 1380 3866 1432 
C 3866 1896 3488 2093 3245 2169 
z
" transform="scale(0.015625)"/>
     <path id="CMR17-3d" d="M 4115 2017 
C 4211 2017 4307 2017 4307 2125 
C 4307 2240 4198 2240 4090 2240 
L 512 2240 
C 403 2240 294 2240 294 2125 
C 294 2017 390 2017 486 2017 
L 4115 2017 
z
M 4090 896 
C 4198 896 4307 896 4307 1011 
C 4307 1119 4211 1119 4115 1119 
L 486 1119 
C 390 1119 294 1119 294 1011 
C 294 896 403 896 512 896 
L 4090 896 
z
" transform="scale(0.015625)"/>
     <path id="CMEX10-50" d="M 2694 -3418 
L 422 -6227 
C 371 -6291 365 -6304 365 -6330 
C 365 -6400 422 -6400 538 -6400 
L 5843 -6400 
L 6394 -4806 
L 6234 -4806 
C 6074 -5286 5645 -5677 5101 -5862 
C 4998 -5894 4557 -6048 3616 -6048 
L 896 -6048 
L 3117 -3302 
C 3162 -3245 3174 -3226 3174 -3200 
C 3174 -3174 3168 -3168 3130 -3110 
L 1050 -256 
L 3584 -256 
C 4314 -256 5786 -301 6234 -1498 
L 6394 -1498 
L 5843 0 
L 538 0 
C 365 0 358 -6 358 -205 
L 2694 -3418 
z
" transform="scale(0.015625)"/>
     <path id="CMMI12-6e" d="M 1318 1871 
C 1331 1910 1491 2229 1728 2433 
C 1894 2586 2112 2689 2362 2689 
C 2618 2689 2707 2497 2707 2242 
C 2707 1878 2445 1150 2317 805 
C 2259 651 2227 568 2227 453 
C 2227 166 2426 -64 2733 -64 
C 3328 -64 3552 875 3552 913 
C 3552 945 3526 971 3488 971 
C 3430 971 3424 952 3392 843 
C 3245 319 3002 64 2752 64 
C 2688 64 2586 64 2586 269 
C 2586 429 2656 621 2694 710 
C 2822 1063 3091 1780 3091 2145 
C 3091 2528 2867 2816 2381 2816 
C 1811 2816 1510 2415 1395 2255 
C 1376 2618 1114 2816 832 2816 
C 627 2816 486 2695 378 2478 
C 262 2248 173 1865 173 1839 
C 173 1814 198 1782 243 1782 
C 294 1782 301 1788 339 1935 
C 442 2325 557 2689 813 2689 
C 960 2689 1011 2586 1011 2395 
C 1011 2254 947 2005 902 1807 
L 723 1118 
C 698 996 627 709 595 594 
C 550 428 480 128 480 96 
C 480 6 550 -64 646 -64 
C 723 -64 813 -26 864 70 
C 877 102 934 326 966 453 
L 1107 1028 
L 1318 1871 
z
" transform="scale(0.015625)"/>
     <path id="CMMI12-72" d="M 2490 2612 
C 2291 2574 2189 2433 2189 2293 
C 2189 2139 2310 2088 2400 2088 
C 2579 2088 2726 2242 2726 2433 
C 2726 2638 2528 2816 2208 2816 
C 1952 2816 1658 2701 1389 2312 
C 1344 2650 1088 2816 832 2816 
C 582 2816 454 2625 378 2484 
C 269 2254 173 1871 173 1839 
C 173 1814 198 1782 243 1782 
C 294 1782 301 1788 339 1935 
C 435 2318 557 2689 813 2689 
C 966 2689 1011 2580 1011 2395 
C 1011 2254 947 2005 902 1807 
L 723 1118 
C 698 996 627 709 595 594 
C 550 428 480 128 480 96 
C 480 6 550 -64 646 -64 
C 717 -64 838 -19 877 109 
C 896 160 1133 1124 1171 1271 
C 1203 1411 1242 1546 1274 1686 
C 1299 1775 1325 1878 1344 1961 
C 1363 2018 1536 2331 1696 2472 
C 1773 2542 1939 2689 2202 2689 
C 2304 2689 2406 2670 2490 2612 
z
" transform="scale(0.015625)"/>
     <path id="CMR17-31" d="M 1702 4058 
C 1702 4192 1696 4192 1606 4192 
C 1357 3916 979 3827 621 3827 
C 602 3827 570 3827 563 3808 
C 557 3795 557 3782 557 3648 
C 755 3648 1088 3686 1344 3839 
L 1344 461 
C 1344 236 1331 160 781 160 
L 589 160 
L 589 0 
C 896 0 1216 0 1523 0 
C 1830 0 2150 0 2458 0 
L 2458 160 
L 2266 160 
C 1715 160 1702 230 1702 458 
L 1702 4058 
z
" transform="scale(0.015625)"/>
     <path id="CMMI12-3d" d="M 2746 4562 
C 2746 4569 2784 4666 2784 4678 
C 2784 4755 2720 4800 2669 4800 
C 2637 4800 2579 4800 2528 4659 
L 384 -1363 
C 384 -1370 346 -1465 346 -1478 
C 346 -1555 410 -1600 461 -1600 
C 499 -1600 557 -1593 602 -1459 
L 2746 4562 
z
" transform="scale(0.015625)"/>
     <path id="CMEX10-51" d="M 2299 -6400 
L 2299 -6144 
C 1639 -6144 1639 -5830 1639 -5638 
L 1639 -256 
L 4398 -256 
L 4398 -5638 
C 4398 -5830 4398 -6144 3739 -6144 
L 3739 -6400 
L 5678 -6400 
L 5678 -6144 
C 5019 -6144 5019 -5830 5019 -5638 
L 5019 -762 
C 5019 -570 5019 -256 5678 -256 
L 5678 0 
L 359 0 
L 359 -256 
C 1019 -256 1019 -570 1019 -762 
L 1019 -5638 
C 1019 -5830 1019 -6144 359 -6144 
L 359 -6400 
L 2299 -6400 
z
" transform="scale(0.015625)"/>
     <path id="CMSY10-0" d="M 4218 1472 
C 4326 1472 4442 1472 4442 1600 
C 4442 1728 4326 1728 4218 1728 
L 755 1728 
C 646 1728 531 1728 531 1600 
C 531 1472 646 1472 755 1472 
L 4218 1472 
z
" transform="scale(0.015625)"/>
     <path id="CMMI12-69" d="M 1811 913 
C 1811 945 1786 971 1747 971 
C 1690 971 1683 952 1651 843 
C 1485 262 1222 64 1011 64 
C 934 64 845 83 845 275 
C 845 447 922 639 992 830 
L 1440 2018 
C 1459 2069 1504 2184 1504 2305 
C 1504 2574 1312 2816 998 2816 
C 410 2816 173 1890 173 1839 
C 173 1814 198 1782 243 1782 
C 301 1782 307 1807 333 1896 
C 486 2428 730 2682 979 2682 
C 1037 2682 1146 2682 1146 2478 
C 1146 2312 1062 2101 1011 1961 
L 563 773 
C 525 671 486 568 486 453 
C 486 166 685 -64 992 -64 
C 1581 -64 1811 869 1811 913 
z
M 1760 4013 
C 1760 4109 1683 4224 1542 4224 
C 1395 4224 1229 4083 1229 3917 
C 1229 3758 1363 3707 1440 3707 
C 1613 3707 1760 3873 1760 4013 
z
" transform="scale(0.015625)"/>
     <path id="CMR17-28" d="M 1958 -1561 
C 1958 -1555 1958 -1542 1939 -1523 
C 1645 -1224 858 -407 858 1581 
C 858 3569 1632 4379 1946 4697 
C 1946 4704 1958 4717 1958 4736 
C 1958 4755 1939 4768 1914 4768 
C 1843 4768 1299 4296 986 3594 
C 666 2887 576 2199 576 1588 
C 576 1128 621 351 1005 -471 
C 1312 -1135 1837 -1600 1914 -1600 
C 1946 -1600 1958 -1587 1958 -1561 
z
" transform="scale(0.015625)"/>
     <path id="CMR17-29" d="M 1683 1581 
C 1683 2040 1638 2817 1254 3639 
C 947 4303 422 4768 346 4768 
C 326 4768 301 4761 301 4729 
C 301 4717 307 4710 314 4697 
C 621 4378 1402 3568 1402 1584 
C 1402 -407 627 -1217 314 -1537 
C 307 -1549 301 -1556 301 -1568 
C 301 -1600 326 -1600 346 -1600 
C 416 -1600 960 -1128 1274 -426 
C 1594 281 1683 969 1683 1581 
z
" transform="scale(0.015625)"/>
    </defs>
    <use xlink:href="#CMMI12-45" transform="scale(0.996264)"/>
    <use xlink:href="#CMMI12-52" transform="translate(78.051636 0) scale(0.996264)"/>
    <use xlink:href="#CMMI12-52" transform="translate(153.122598 0) scale(0.996264)"/>
    <use xlink:href="#CMR17-3d" transform="translate(255.867569 0) scale(0.996264)"/>
    <use xlink:href="#CMEX10-50" transform="translate(355.256366 74.720454) scale(0.996264)"/>
    <use xlink:href="#CMMI12-6e" transform="translate(460.417918 47.793963) scale(0.697382)"/>
    <use xlink:href="#CMMI12-72" transform="translate(460.417918 -28.394178) scale(0.697382)"/>
    <use xlink:href="#CMR17-3d" transform="translate(493.087187 -28.394178) scale(0.697382)"/>
    <use xlink:href="#CMR17-31" transform="translate(543.287319 -28.394178) scale(0.697382)"/>
    <use xlink:href="#CMR17-31" transform="translate(592.373038 0) scale(0.996264)"/>
    <use xlink:href="#CMMI12-3d" transform="translate(638.063515 0) scale(0.996264)"/>
    <use xlink:href="#CMMI12-72" transform="translate(686.838434 0) scale(0.996264)"/>
    <use xlink:href="#CMEX10-51" transform="translate(750.113451 74.720454) scale(0.996264)"/>
    <use xlink:href="#CMMI12-72" transform="translate(844.205354 47.793963) scale(0.697382)"/>
    <use xlink:href="#CMSY10-0" transform="translate(876.874623 47.793963) scale(0.697382)"/>
    <use xlink:href="#CMR17-31" transform="translate(931.115616 47.793963) scale(0.697382)"/>
    <use xlink:href="#CMMI12-69" transform="translate(844.205354 -28.394178) scale(0.697382)"/>
    <use xlink:href="#CMR17-3d" transform="translate(867.500261 -28.394178) scale(0.697382)"/>
    <use xlink:href="#CMR17-31" transform="translate(917.700393 -28.394178) scale(0.697382)"/>
    <use xlink:href="#CMR17-28" transform="translate(963.59693 0) scale(0.996264)"/>
    <use xlink:href="#CMR17-31" transform="translate(998.877698 0) scale(0.996264)"/>
    <use xlink:href="#CMSY10-0" transform="translate(1066.707382 0) scale(0.996264)"/>
    <use xlink:href="#CMMI12-52" transform="translate(1166.334057 0) scale(0.996264)"/>
    <use xlink:href="#CMMI12-69" transform="translate(1240.584882 -14.943915) scale(0.697382)"/>
    <use xlink:href="#CMR17-29" transform="translate(1264.377922 0) scale(0.996264)"/>
    <use xlink:href="#CMMI12-52" transform="translate(1299.65869 0) scale(0.996264)"/>
    <use xlink:href="#CMMI12-72" transform="translate(1373.909515 -14.943915) scale(0.697382)"/>
   </g>
  </g>
 </g>
</svg>
